<svg xmlns="http://www.w3.org/2000/svg" viewBox="0 0 200 200" fill="none">
  <path d="M148.2 47.7C131.3 30.8 104.7 30.8 87.8 47.7L51.8 83.7C45.5 90 35.3 90 29 83.7 22.7 77.4 22.7 67.2 29 60.9l36-36c16.9-16.9 43.5-16.9 60.4 0 16.9 16.9 16.9 43.5 0 60.4l-36 36c-6.3 6.3-6.3 16.5 0 22.8 6.3 6.3 16.5 6.3 22.8 0l36-36c16.9-16.9 16.9-43.5 0-60.4z" fill="#2563eb"/>
  <path d="M51.8 152.3C68.7 169.2 95.3 169.2 112.2 152.3L148.2 116.3C154.5 110 164.7 110 171 116.3 177.3 122.6 177.3 132.8 171 139.1l-36 36c-16.9 16.9-43.5 16.9-60.4 0-16.9-16.9-16.9-43.5 0-60.4l36-36c6.3-6.3 6.3-16.5 0-22.8-6.3-6.3-16.5-6.3-22.8 0l-36 36c-16.9 16.9-16.9 43.5 0 60.4z" fill="#2563eb"/>
</svg>