<svg xmlns="http://www.w3.org/2000/svg" viewBox="0 0 100 100" fill="none">
  <rect width="100" height="100" rx="20" fill="#0f172a"/>
  
  <path d="M70 25H30C24.5 25 20 29.5 20 35V40C20 45.5 24.5 50 30 50H60C62.76 50 65 52.24 65 55V60C65 62.76 62.76 65 60 65H20" stroke="#2563eb" stroke-width="12" stroke-linecap="round"/>
  <path d="M30 75H70C75.5 75 80 70.5 80 65V60C80 54.5 75.5 50 70 50H40C37.24 50 35 47.76 35 45V40C35 37.24 37.24 35 40 35H80" stroke="#06b6d4" stroke-width="12" stroke-linecap="round"/>
</svg>